HIERARCHY
ROOT Hips
{
	OFFSET 0.00000 0.00000 0.00000
	CHANNELS 6 Xposition Yposition Zposition Zrotation Yrotation Xrotation 
	JOINT LHipJoint
	{
		OFFSET 0 0 0
		CHANNELS 3 Zrotation Yrotation Xrotation
		JOINT LeftHip
		{
			OFFSET 1.27966 -1.91611 0.81506
			CHANNELS 3 Zrotation Yrotation Xrotation
			JOINT LeftKnee
			{
				OFFSET 2.49511 -6.85528 0.00000
				CHANNELS 3 Zrotation Yrotation Xrotation
				JOINT LeftAnkle
				{
					OFFSET 2.67286 -7.34045 0.00000
					CHANNELS 3 Zrotation Yrotation Xrotation
					JOINT LeftToe
					{
						OFFSET 0.22740 -0.62477 2.32102
						CHANNELS 3 Zrotation Yrotation Xrotation
						End Site
						{
							OFFSET 0.00000 -0.00000 1.20480
						}
					}
				}
			}
		}
	}
	JOINT RHipJoint
	{
		OFFSET 0 0 0
		CHANNELS 3 Zrotation Yrotation Xrotation
		JOINT RightHip
		{
			OFFSET -1.09666 -1.91611 0.81505
			CHANNELS 3 Zrotation Yrotation Xrotation
			JOINT RightKnee
			{
				OFFSET -2.51373 -6.90642 0.00000
				CHANNELS 3 Zrotation Yrotation Xrotation
				JOINT RightAnkle
				{
					OFFSET -2.70173 -7.42295 0.00000
					CHANNELS 3 Zrotation Yrotation Xrotation
					JOINT RightToe
					{
						OFFSET -0.22214 -0.61032 2.18267
						CHANNELS 3 Zrotation Yrotation Xrotation
						End Site
						{
							OFFSET -0.00000 -0.00000 1.13683
						}
					}
				}
			}
		}
	}
	JOINT lowerback
	{
		OFFSET 0 0 0
		CHANNELS 3 Zrotation Yrotation Xrotation
		JOINT Chest
		{
			OFFSET -0.00990 2.16804 -0.08389
			CHANNELS 3 Zrotation Yrotation Xrotation
			JOINT Chest2
			{
				OFFSET 0.06407 2.15456 0.07285
				CHANNELS 3 Zrotation Yrotation Xrotation
				JOINT lowerneck
				{
					OFFSET 0 0 0
					CHANNELS 3 Zrotation Yrotation Xrotation
					JOINT Neck
					{
						OFFSET -0.16931 1.61602 0.24462
						CHANNELS 3 Zrotation Yrotation Xrotation
						JOINT Head
						{
							OFFSET 0.21556 1.63376 -0.33896
							CHANNELS 3 Zrotation Yrotation Xrotation
							End Site
							{
								OFFSET 0.08444 1.69244 -0.14900
							}
						}
					}
				}
				JOINT LeftCollar
				{
					OFFSET 0 0 0
					CHANNELS 3 Zrotation Yrotation Xrotation
					JOINT LeftShoulder
					{
						OFFSET 2.89000 1.40150 -0.54392
CHANNELS 3 Zrotation Xrotation Yrotation
						JOINT LeftElbow
						{
OFFSET 0 -5.107550 0.000000
CHANNELS 3 Zrotation Xrotation Yrotation
							JOINT LeftWrist
							{
OFFSET 0 -3.362530 0.000000
CHANNELS 3 Zrotation Xrotation Yrotation
								JOINT lhand
								{
									OFFSET 0 0 0
CHANNELS 3 Zrotation Xrotation Yrotation
									JOINT LFingers
									{
OFFSET 0 -0.619090 0.000000
CHANNELS 3 Zrotation Xrotation Yrotation
										End Site
										{
OFFSET 0 -0.499120 0.000000
										}
									}
								}
								JOINT LThumb
								{
OFFSET 0 0.000000 0.000000
CHANNELS 3 Zrotation Xrotation Yrotation
									End Site
									{
OFFSET 0 -0.506750 0.506750
									}
								}
							}
						}
					}
				}
				JOINT RightCollar
				{
					OFFSET 0 0 0
					CHANNELS 3 Zrotation Yrotation Xrotation
					JOINT RightShoulder
					{
						OFFSET -2.65771 1.70968 -0.54312
CHANNELS 3 Zrotation Xrotation Yrotation
						JOINT RightElbow
						{
OFFSET 0 -5.273870 0.000000
CHANNELS 3 Zrotation Xrotation Yrotation
							JOINT RightWrist
							{
OFFSET 0 -3.401440 0.000000
CHANNELS 3 Zrotation Xrotation Yrotation
								JOINT rhand
								{
									OFFSET 0 0 0
CHANNELS 3 Zrotation Xrotation Yrotation
									JOINT RFingers
									{
OFFSET 0 -0.742820 0.000000
CHANNELS 3 Zrotation Xrotation Yrotation
										End Site
										{
OFFSET 0 -0.598880 0.000000
										}
									}
								}
								JOINT RThumb
								{
OFFSET 0 0.000000 0.000000
CHANNELS 3 Zrotation Xrotation Yrotation
									End Site
									{
OFFSET 0 -0.608030 0.608030
									}
								}
							}
						}
					}
				}
			}
		}
	}
}
MOTION
Frames: 7
Frame Time: 0.008333333333333333
0.607900 18.402800 -2.556600 -4.455700 0.920500 -0.725800 0.000000 0.000000 0.000000 -14.819900 1.186700 2.440000 0.505600 4.558300 12.653000 0.334800 -3.895900 -10.287400 0.349800 -3.799800 -10.514100 0.000000 0.000000 0.000000 25.483000 0.422600 2.969400 -0.405200 -4.086600 11.320500 -0.219600 -5.517200 -12.583900 -0.219900 3.018800 -8.331200 0.158800 0.642800 8.891100 3.501300 1.131300 -2.300500 3.437700 0.637000 -7.499300 -18.861700 -8.861200 -20.068200 16.048400 -10.554500 19.755400 7.382300 -4.475800 11.734700 -0.000000 -0.000000 0.000000 -2.704800 10.177500 -17.939100 17.361300 -27.331600 4.251900 14.852700 7.082100 -30.505100 0.000000 0.000000 0.000000 -7.125000 0.000000 0.000000 -19.208900 60.307900 7.331400 -0.000000 -0.000000 0.000000 -4.619300 6.640100 15.700800 -21.568000 -32.485400 -6.352300 -26.313800 -0.654900 -13.804400 0.000000 0.000000 0.000000 7.125000 0.000000 -0.000000 0.753000 14.651900 0.538100
0.688372 18.405859 -2.504791 -4.007762 0.735786 -0.525820 0.000000 0.000000 0.000000 -15.479970 2.289761 2.554603 0.439148 4.252189 11.787274 0.297070 -4.501842 -9.730720 0.331222 -3.698483 -10.229871 0.000000 0.000000 0.000000 24.655338 0.229232 2.566954 -0.449222 -4.300168 11.922682 -0.247045 -5.113777 -12.668300 -0.373171 3.923410 -10.861258 -0.104913 0.171514 8.400065 3.488394 0.448801 -1.993718 3.668094 0.304632 -6.849327 -18.307577 -9.063112 -20.065380 15.299062 -10.719009 18.897114 6.911353 -4.580440 11.355492 0.000000 0.000000 0.000000 -2.771178 11.463520 -18.259224 17.584678 -27.622130 4.354982 14.988015 6.935870 -31.410047 0.000000 0.000000 0.000000 -7.125000 0.000000 0.000000 -19.778737 61.188213 7.975954 0.000000 0.000000 0.000000 -4.479294 9.704419 14.317706 -32.207296 -42.709778 -12.881972 -30.267732 -2.092324 -18.453516 0.000000 0.000000 0.000000 7.125000 0.000000 0.000000 -1.380721 8.860095 -1.151901
0.746949 18.400291 -2.468519 -3.850555 -0.676948 -0.410818 0.000000 0.000000 0.000000 -15.889024 3.098580 2.793018 0.401510 4.068251 11.268706 0.301569 -3.918342 -9.766888 0.303975 -3.544861 -9.799590 0.000000 0.000000 0.000000 24.279489 1.045984 2.373634 -0.500440 -4.535150 12.587372 -0.265873 -4.587413 -12.524815 -0.467871 4.387117 -12.168418 -0.665664 0.144914 8.848492 3.757398 0.385118 -2.325057 4.294461 0.315578 -7.465726 -18.563282 -9.663640 -18.528239 15.216163 -11.758004 18.716231 6.736640 -5.144763 11.212435 0.000000 0.000000 0.000000 -2.463807 14.678319 -23.192291 18.729881 -29.081706 4.898831 14.877148 6.274266 -32.203105 0.000000 0.000000 0.000000 -7.125000 0.000000 0.000000 -20.560541 61.899104 8.652035 0.000000 0.000000 0.000000 -5.826356 11.803358 13.561534 -46.507392 -51.483313 -23.413107 -32.916940 0.745327 -21.559834 0.000000 0.000000 0.000000 7.125000 0.000000 0.000000 -2.598393 4.796184 -2.374833
0.812326 18.401843 -2.415326 -3.805151 -2.059621 -0.470170 0.000000 0.000000 0.000000 -16.229267 3.783911 3.157293 0.395986 4.040525 11.190653 0.329647 -3.286678 -10.212750 0.306687 -3.560526 -9.843496 0.000000 0.000000 0.000000 23.916122 1.408301 2.855846 -0.487253 -4.476051 12.419910 -0.284740 -3.803560 -12.212883 -0.475882 4.424149 -12.273144 -0.840378 0.116687 8.114386 3.910363 0.319587 -2.059367 4.552278 0.280674 -6.757122 -19.227784 -9.890143 -16.841273 16.238691 -12.464543 18.507008 7.143978 -5.490834 11.088323 0.000000 0.000000 0.000000 -2.275674 16.316481 -28.374583 20.213397 -30.898558 5.640535 15.893277 5.753715 -31.827863 0.000000 0.000000 0.000000 -7.125000 0.000000 0.000000 -19.139737 61.802858 7.985769 0.000000 0.000000 0.000000 -9.414992 10.134597 12.532137 -69.152753 -58.291951 -42.049362 -39.596152 6.310214 -25.663250 0.000000 0.000000 0.000000 7.125000 0.000000 0.000000 -5.796154 -1.820762 -6.007923
0.860288 18.400248 -2.429511 -3.680137 -1.951221 -0.477027 0.000000 0.000000 0.000000 -16.517908 3.584831 2.805628 0.431710 4.216578 11.686877 0.337986 -4.020284 -10.338864 0.309573 -3.576898 -9.889318 0.000000 0.000000 0.000000 23.705905 1.696861 2.875292 -0.484931 -4.465343 12.389580 -0.252768 -4.394388 -12.147543 -0.601796 4.965803 -13.811130 -0.965211 0.494114 8.140580 3.837866 0.807737 -2.054583 4.478278 0.525425 -6.809874 -19.052455 -10.072938 -17.234528 15.961856 -12.737711 19.325120 6.973940 -5.611629 11.486744 0.000000 0.000000 0.000000 -2.172041 16.048072 -30.987681 20.277652 -30.975415 5.673521 15.971206 5.643817 -31.493245 0.000000 0.000000 0.000000 -7.125000 0.000000 0.000000 -18.780706 61.507762 7.698441 0.000000 0.000000 0.000000 -16.602177 3.616651 4.325330 -88.781884 -59.994301 -58.945140 -47.809616 9.317897 -27.344555 0.000000 0.000000 0.000000 7.125000 0.000000 0.000000 -9.985165 -7.110845 -11.307643
0.859661 18.400713 -2.428343 -3.844090 0.294349 -0.390317 0.000000 0.000000 0.000000 -16.150691 3.064142 2.366310 0.447457 4.291607 11.898495 0.286475 -5.050968 -9.625591 0.285234 -3.434181 -9.490007 0.000000 0.000000 0.000000 24.064014 1.246791 2.993259 -0.453707 -4.321303 11.982357 -0.210928 -5.955557 -12.860758 -0.542497 4.718890 -13.108534 -0.882057 0.519683 8.004749 3.513574 0.837912 -2.375576 4.084601 0.536797 -7.067995 -19.375984 -10.216229 -16.440260 16.176805 -13.084520 19.461346 7.069968 -5.809472 11.500140 0.000000 0.000000 0.000000 -1.864353 15.697684 -30.983905 20.402160 -31.123760 5.737795 16.365010 4.621744 -29.423757 0.000000 0.000000 0.000000 -7.125000 0.000000 0.000000 -16.807811 59.634697 6.110730 0.000000 0.000000 0.000000 -25.217351 -0.221294 -2.289870 -101.015496 -59.536379 -69.524854 -54.084533 8.000115 -24.990429 0.000000 0.000000 0.000000 7.125000 0.000000 0.000000 -14.066918 -7.476851 -16.244992
0.897639 18.395813 -2.436203 -3.753778 -1.371217 -0.440729 0.000000 0.000000 0.000000 -16.564930 4.033251 2.712937 0.405421 4.087787 11.323775 0.327038 -3.495625 -10.167615 0.362682 -3.868290 -10.706365 0.000000 0.000000 0.000000 23.678655 1.680024 2.545946 -0.522004 -4.630254 12.856937 -0.265765 -4.613360 -12.543630 -0.561544 4.799773 -13.338385 -0.341357 0.828949 7.688636 3.372579 1.287652 -2.128152 3.562883 0.723673 -6.640963 -19.457786 -10.099596 -18.117078 15.283622 -12.529180 21.164894 6.866843 -5.587481 12.288939 0.000000 0.000000 0.000000 -2.846082 15.513583 -29.380321 19.151605 -29.606650 5.105563 16.434268 6.103684 -29.151053 0.000000 0.000000 0.000000 -7.125000 0.000000 0.000000 -16.548527 59.388504 5.916444 0.000000 0.000000 0.000000 -37.655669 -8.889832 7.456701 -110.271520 -58.388860 -77.460754 -53.109090 10.728247 -27.371553 0.000000 0.000000 0.000000 7.125000 0.000000 0.000000 -12.835345 -9.901503 -15.204096
